<svg xmlns="http://www.w3.org/2000/svg" viewBox="0 0 124.19 108.68">
  <g id="Layer_2" data-name="Layer 2">
    <g id="Layer_1-2" data-name="Layer 1">
      <path d="M122.09,25.73a6.72,6.72,0,0,0-2.81.48,43.8,43.8,0,0,1-5.83,1.43c-1.9.26-7.41-.85-10.27-.58s-11.6,6.77-11.6,6.77l0,0A41.93,41.93,0,0,0,86.3,30c1.87-.33,3-1,2.88-2.31C88.54,21.57,70.91,18,70.91,18L69,17.71a8.77,8.77,0,0,1,3.29-1.08,6.85,6.85,0,0,1,3.09.6S74.2,15.06,74.2,15.1a11,11,0,0,0-4.57,1.21A5,5,0,0,0,68.4,17.6c-.14-.2-.14-.35,0-1a15,15,0,0,1,.72-2.1c.34-.92.59-.81,1.06-1.58a3.91,3.91,0,0,1-1.44-.16,3.37,3.37,0,0,1-1.32-.66,18.76,18.76,0,0,0-.24,3.18A3.57,3.57,0,0,0,67.5,17a2.22,2.22,0,0,0,.58.6c-1.7-.21-4-.47-6.41-.6h.76a9.65,9.65,0,0,1-.32-2.38c-.11-2,.79-2.28,1.64-2.91s4.82-2.33,9.32-4.61S80.27,3,80.64,2,80,.52,78.9.1s-2.49.64-2.49.64a41,41,0,0,1-6.78,5.19c-.9.58-6.51,3.12-8,4.44a3.64,3.64,0,0,0-1.22,3.18l.37,3.4c-3.33-.14-6.7,0-8.84.78h0l-.13.06-.37.16-.2.09-.35.21a.78.78,0,0,0-.15.1,3,3,0,0,0-.33.27.6.6,0,0,0-.08.08,2.12,2.12,0,0,0-.33.41c-1.16,1.85.6,3.51,3.05,4.83a18,18,0,0,0-2.9,1h0c-1.67.71-3.1,1.63-3.1,2.38,0,.48.52,1,1.43,1.57a18.47,18.47,0,0,0-4.19,4.71c-9,15-2.75,27.5,8.3,34.86a14,14,0,0,0-1.31,2,17,17,0,0,0-2.06,8,26,26,0,0,0-4.65-3.72A129.39,129.39,0,0,0,40,54.8L36.79,71.53a25.46,25.46,0,0,0-5.63-.63,33.7,33.7,0,0,0-7,.79A57.86,57.86,0,0,1,19.43,52.9a49.73,49.73,0,0,0-2.75,16.84c0,1.17.19,2.65.41,4.33A45.11,45.11,0,0,0,2.46,84.88c-2.54,2.86-3,3.9-1.91,4.88a4,4,0,0,0,1.57,1,16,16,0,0,0,3.6.4,12.46,12.46,0,0,1,3.41.75c1.84.44,8.54,3.39,12.47,4.58.64,2.46,1.27,4.75,1.87,6.69h0a17,17,0,0,0-6.63,1.77,7.11,7.11,0,0,0-3.54,3.74L26.44,108s-1.8-4.86-3.64-11.22c.26.06.5.11.71.14,3.1.44,8.46,2,15.81,0,1.65-.45,3.33-.91,4.92-1.47A36.82,36.82,0,0,1,41,107.76l13.16.28a7,7,0,0,0-3.53-3.73,23,23,0,0,0-6.93-2.16,33.09,33.09,0,0,0,1.41-7C48.26,94,51,92.32,52.24,89.6A7.87,7.87,0,0,0,55.1,91a12.51,12.51,0,0,0,6,.52s1,2.32,3,2.58a2.64,2.64,0,0,0,3.08-1.72c.44-1.42-.1-2.39-1.49-3.32,0,0,1.89.71,2.07-.14s-1.83-1.47-3.18-1.26a5.42,5.42,0,0,0-3.79,2.8,15.06,15.06,0,0,1-4-.44c-1.51-.46-2.55-.67-3.07-.9a2.76,2.76,0,0,1-1-.74A9.62,9.62,0,0,0,53,86.29a8.14,8.14,0,0,0,.75.5s7.14,4,15.09-5.4a17.83,17.83,0,0,0,2.7-4.16C76,78.67,81.73,80.05,84.51,80c3.55-.05,7.1-2.57,7.39-2.8s-.16-1.06-.26-1.3.16-.69,0-1.09-1.25-1-1.25-1c.67-.93,3.5-1.7,2-2.44a2.54,2.54,0,0,0-1.93.33A19.19,19.19,0,0,0,97,65.18c8.51-14.08,2.19-24.34-4.29-30.35.11-.06,7.2-4.07,7.62-4.33a2.61,2.61,0,0,1,1.64-.27c12.13,1.17,14.88.85,17,.69s4.92-1,5.24-2.54S122.72,25.89,122.09,25.73Z"/>
    </g>
  </g>
</svg>
