<svg xmlns="http://www.w3.org/2000/svg" viewBox="0 0 290.98 166.02"><defs><style>.cls-1{fill:#fff;stroke:#a6aeb3;stroke-miterlimit:10;stroke-width:5px;}</style></defs><g id="Layer_2" data-name="Layer 2"><g id="Layer_1-2" data-name="Layer 1"><path class="cls-1" d="M288.48,93.12C268.76,91,155.23,2,155.23,2.5,63.54,11.56,3.84,29.69,3.84,29.69c3.1,5.76,6.11,11.24,9,16.49-5.88,1-9,1.5-9,1.5,57,106.07,91.08,114.66,92.53,115.73s47.43-5,166.66-48.17a53.27,53.27,0,0,0-4.38-4.76c3.7-1.31,7.45-2.65,11.28-4a69.65,69.65,0,0,0-5.11-5.56C279.85,95.87,288.48,92.94,288.48,93.12Z"/></g></g></svg>