<svg xmlns="http://www.w3.org/2000/svg" viewBox="0 0 97.44 111.03">
  <g id="Layer_2" data-name="Layer 2">
    <g id="Layer_1-2" data-name="Layer 1">
      <path d="M74.93,61a17.38,17.38,0,0,0,.15-5.28C74.13,47.89,70.69,45,69,44A23.39,23.39,0,0,0,58.05,27.32l-.76-7.19s-.47-4.59-1.66-6.53-3.45-3.28-4.22-4.21a45.38,45.38,0,0,1-5.47-7.86S44.78-.09,43.5,0,41,.19,41,1.39s2.31,4.1,6.34,8.07A82.45,82.45,0,0,1,54,16.36a4.13,4.13,0,0,1,1.15,2.41c0,.88,1.3,6.78,1.5,7.72a31.62,31.62,0,0,0-6.52-2.75c.56-.33.87-.54.87-.54h0c2.12-.91,3.3-2,2.76-3.3C51.42,14.33,33.86,16,33.86,16L32,16.23a8.25,8.25,0,0,1,2.77-1.94A6.81,6.81,0,0,1,37.82,14s-1.69-1.7-1.68-1.67a10.63,10.63,0,0,0-4,2.43,4.79,4.79,0,0,0-.79,1.56c-.19-.15-.23-.29-.27-.9a16.74,16.74,0,0,1,.08-2.17c.06-1,.33-.93.55-1.78a3.81,3.81,0,0,1-1.39.25,3.11,3.11,0,0,1-1.43-.25,17.48,17.48,0,0,0,.68,3.05A3.33,3.33,0,0,0,30.38,16a2.3,2.3,0,0,0,.72.4c-2,.32-4.69.84-7.39,1.55-.06-1.11-.59-8.88-4-9.26-2.26-.59-6.23-.72-7.72-1.19S7.55,6.15,7,5.84A26,26,0,0,0,2.11,4.48C1.58,4.52,0,5.52,0,6.79S4.47,9.11,6.1,9.51s3.69,1.12,13.54,1.8c.56,0,1,.65,1.29.92S22,17.5,22.12,18.36a20.79,20.79,0,0,0-6.18,2.71h0l-.11.09-.3.25-.16.15-.27.29L15,22a2.64,2.64,0,0,0-.23.35.41.41,0,0,0-.05.09,2.45,2.45,0,0,0-.2.48C13.93,25,16.05,26,18.72,26.59a17.73,17.73,0,0,0-2.45,1.72h0c-1.36,1.14-2.45,2.41-2.24,3.11a1.13,1.13,0,0,0,.44.53h0l0,0A17.66,17.66,0,0,0,9.28,44.55c0,16.85,18.3,23.91,18.3,23.91a63.73,63.73,0,0,0,15.81,2.25c0,.1.06.2.08.3a7.31,7.31,0,0,0-3.16,3.57,29.55,29.55,0,0,0-1.7,21.48,5.13,5.13,0,0,0-2,5.37c.88,3.2,5.23,2.45,6-.54,0,0,0,1.49,1.13,1.67s1.45-5.52-4.1-7.11A30.52,30.52,0,0,1,39.88,84s1.73-7.35,4.58-10.32a4.05,4.05,0,0,0,1.74,2,21.64,21.64,0,0,0,5.33,1.44A100.79,100.79,0,0,1,54.3,98.59c.14,12.09,6.12,12.36,6.12,12.36s15.22,1.63,31.79-9.78A21,21,0,0,0,97,96.82a4.79,4.79,0,0,0,.43-.63S95.83,80.91,74.93,61Z"/>
    </g>
  </g>
</svg>
