<svg xmlns="http://www.w3.org/2000/svg" width="1014.3069" height="639.4412" viewBox="0 0 1014.3069 639.4412"><path d="M997.2559,151.3611c-1.08-13.244-2.7658-40.2158-14.7646-51.5713C939.8158,32.9784,734.5378-4,492.2064,15.7633c-256.45,20.9148-461.66,97.8123-473.9553,175.1126-2.9291,14.2313-1.31,29.7013-.44,40.3638,1.9031,23.3349,20.24,43.9246,52.36,60.8757V606.7693l-.0323-.0367c-7.14.6143-3.9155,15.9692-3.9155,15.9692s8.4452,3.3781,32.5525,5.8349,38.2339-5.8349,38.2339-5.5277c.4431-15.6567-5.5746-15.4-6.0335-15.3582V315.45c44.9939,12.7264,102.0126,21.4758,168.5209,25.4018v21.19c-.531-.0422-.8265-.0667-.8265-.0667s-3.2246,13.5123,29.9422,12.284,25.95-14.1266,25.95-14.1266-.091.0241-.2485.0644v-17.254c50.8733.9328,106.231-.701,165.1622-5.2122,67.4943-5.1666,129.9889-13.2146,186.0374-23.6272V606.9886c-.5137-.0435-7.2481-.308-6.7519,15.8343,0-.3167,15.8092,8.2319,42.7875,5.6992s36.4292-6.0159,36.4292-6.0159,3.6087-15.831-4.3819-16.4643l-.0362.0379V299.5364c47.7946-11.7258,89.1994-25.3913,122.9683-40.5564v98.8677c-1.4645.1984-5.22,1.6851-4.8856,11.7667,0-.2357,12.7125,6.13,34.4068,4.244s29.2943-4.48,29.2943-4.48,2.669-10.8581-2.8013-12.1448V250.9564c-.052.0123-.1114.0258-.1644.0387l.1459-23.4839C984.7522,204.0605,1000.77,178.2872,997.2559,151.3611Z"/></svg>